<svg width="18" height="17" viewBox="0 0 18 17" fill="none" xmlns="http://www.w3.org/2000/svg">
<path d="M9.05135 14.0233L4.90135 16.5233C4.71802 16.64 4.52635 16.69 4.32635 16.6733C4.12635 16.6566 3.95135 16.59 3.80135 16.4733C3.65135 16.3566 3.53469 16.211 3.45135 16.0363C3.36802 15.8616 3.35135 15.6656 3.40135 15.4483L4.50135 10.7233L0.826354 7.5483C0.659688 7.3983 0.555688 7.2273 0.514354 7.0353C0.473021 6.8433 0.485354 6.65597 0.551354 6.4733C0.617354 6.29064 0.717354 6.14064 0.851354 6.0233C0.985354 5.90597 1.16869 5.83097 1.40135 5.7983L6.25135 5.3733L8.12635 0.923303C8.20969 0.723303 8.33902 0.573303 8.51435 0.473303C8.68969 0.373303 8.86869 0.323303 9.05135 0.323303C9.23402 0.323303 9.41302 0.373303 9.58835 0.473303C9.76369 0.573303 9.89302 0.723303 9.97635 0.923303L11.8514 5.3733L16.7014 5.7983C16.9347 5.83164 17.118 5.90664 17.2514 6.0233C17.3847 6.13997 17.4847 6.28997 17.5514 6.4733C17.618 6.65664 17.6307 6.8443 17.5894 7.0363C17.548 7.2283 17.4437 7.39897 17.2764 7.5483L13.6014 10.7233L14.7014 15.4483C14.7514 15.665 14.7347 15.861 14.6514 16.0363C14.568 16.2116 14.4514 16.3573 14.3014 16.4733C14.1514 16.5893 13.9764 16.656 13.7764 16.6733C13.5764 16.6906 13.3847 16.6406 13.2014 16.5233L9.05135 14.0233Z" fill="#FFAB00"/>
</svg>
